<svg width="230" height="60" viewBox="0 0 88 13" fill="none" xmlns="http://www.w3.org/2000/svg">
<path d="M7.32 1.6H8.34V10.42L1.98 3.748V10H0.96V1.18L7.32 7.852V1.6ZM9.72469 7.24C9.72469 6.68 9.84869 6.184 10.0967 5.752C10.3527 5.32 10.6967 4.98 11.1287 4.732C11.5607 4.484 12.0447 4.36 12.5807 4.36C13.1247 4.36 13.6087 4.484 14.0327 4.732C14.4647 4.98 14.8047 5.32 15.0527 5.752C15.3087 6.184 15.4367 6.68 15.4367 7.24C15.4367 7.792 15.3087 8.288 15.0527 8.728C14.8047 9.16 14.4647 9.5 14.0327 9.748C13.6087 9.996 13.1247 10.12 12.5807 10.12C12.0447 10.12 11.5607 9.996 11.1287 9.748C10.6967 9.5 10.3527 9.16 10.0967 8.728C9.84869 8.288 9.72469 7.792 9.72469 7.24ZM10.6967 7.24C10.6967 7.624 10.7767 7.964 10.9367 8.26C11.1047 8.556 11.3287 8.792 11.6087 8.968C11.8967 9.136 12.2207 9.22 12.5807 9.22C12.9407 9.22 13.2607 9.136 13.5407 8.968C13.8287 8.792 14.0527 8.556 14.2127 8.26C14.3807 7.964 14.4647 7.624 14.4647 7.24C14.4647 6.856 14.3807 6.516 14.2127 6.22C14.0527 5.916 13.8287 5.68 13.5407 5.512C13.2607 5.344 12.9407 5.26 12.5807 5.26C12.2207 5.26 11.8967 5.344 11.6087 5.512C11.3287 5.68 11.1047 5.916 10.9367 6.22C10.7767 6.516 10.6967 6.856 10.6967 7.24ZM15.9155 4.48H18.6755V5.38H15.9155V4.48ZM16.8155 2.56H17.7755V10H16.8155V2.56ZM27.1743 7.78L29.3583 1.6H30.4983L27.1983 10.42L24.6783 3.892L22.1583 10.42L18.8583 1.6H19.9983L22.2303 7.78L24.6783 1.18L27.1743 7.78ZM30.0802 7.24C30.0802 6.68 30.2042 6.184 30.4522 5.752C30.7082 5.32 31.0522 4.98 31.4842 4.732C31.9162 4.484 32.4002 4.36 32.9362 4.36C33.4802 4.36 33.9642 4.484 34.3882 4.732C34.8202 4.98 35.1602 5.32 35.4082 5.752C35.6642 6.184 35.7922 6.68 35.7922 7.24C35.7922 7.792 35.6642 8.288 35.4082 8.728C35.1602 9.16 34.8202 9.5 34.3882 9.748C33.9642 9.996 33.4802 10.12 32.9362 10.12C32.4002 10.12 31.9162 9.996 31.4842 9.748C31.0522 9.5 30.7082 9.16 30.4522 8.728C30.2042 8.288 30.0802 7.792 30.0802 7.24ZM31.0522 7.24C31.0522 7.624 31.1322 7.964 31.2922 8.26C31.4602 8.556 31.6842 8.792 31.9642 8.968C32.2522 9.136 32.5762 9.22 32.9362 9.22C33.2962 9.22 33.6162 9.136 33.8962 8.968C34.1842 8.792 34.4082 8.556 34.5682 8.26C34.7362 7.964 34.8202 7.624 34.8202 7.24C34.8202 6.856 34.7362 6.516 34.5682 6.22C34.4082 5.916 34.1842 5.68 33.8962 5.512C33.6162 5.344 33.2962 5.26 32.9362 5.26C32.5762 5.26 32.2522 5.344 31.9642 5.512C31.6842 5.68 31.4602 5.916 31.2922 6.22C31.1322 6.516 31.0522 6.856 31.0522 7.24ZM38.0709 4.48V10H37.1109V4.48H38.0709ZM39.7389 5.536C39.6109 5.44 39.4949 5.372 39.3909 5.332C39.2869 5.284 39.1549 5.26 38.9949 5.26C38.7549 5.26 38.5669 5.32 38.4309 5.44C38.2949 5.56 38.1989 5.724 38.1429 5.932C38.0949 6.14 38.0709 6.376 38.0709 6.64H37.6389C37.6389 6.2 37.7149 5.812 37.8669 5.476C38.0269 5.132 38.2309 4.86 38.4789 4.66C38.7269 4.46 38.9789 4.36 39.2349 4.36C39.4349 4.36 39.6189 4.388 39.7869 4.444C39.9629 4.492 40.1229 4.592 40.2669 4.744L39.7389 5.536ZM41.1642 0.64H42.1242V10H41.1642V0.64ZM44.1642 4.48H45.3642L42.9642 6.76L45.6042 10H44.4042L41.7642 6.76L44.1642 4.48ZM46.5094 2.2C46.5094 2.016 46.5734 1.86 46.7014 1.732C46.8374 1.604 46.9934 1.54 47.1694 1.54C47.3534 1.54 47.5094 1.604 47.6374 1.732C47.7654 1.86 47.8294 2.016 47.8294 2.2C47.8294 2.376 47.7654 2.532 47.6374 2.668C47.5094 2.796 47.3534 2.86 47.1694 2.86C46.9934 2.86 46.8374 2.796 46.7014 2.668C46.5734 2.532 46.5094 2.376 46.5094 2.2ZM46.6894 4.48H47.6494V10H46.6894V4.48ZM53.1666 6.64C53.1666 6.184 53.0666 5.84 52.8666 5.608C52.6666 5.376 52.3746 5.26 51.9906 5.26C51.7106 5.26 51.4626 5.32 51.2466 5.44C51.0386 5.552 50.8746 5.712 50.7546 5.92C50.6426 6.128 50.5866 6.368 50.5866 6.64V10H49.6266V4.48H50.5866V5.344C50.7706 5.008 50.9986 4.76 51.2706 4.6C51.5506 4.44 51.8706 4.36 52.2306 4.36C52.8146 4.36 53.2746 4.556 53.6106 4.948C53.9546 5.332 54.1266 5.856 54.1266 6.52V10H53.1666V6.64ZM55.5593 10.36H56.5312C56.5312 10.624 56.6033 10.868 56.7473 11.092C56.8913 11.324 57.0953 11.508 57.3593 11.644C57.6233 11.788 57.9353 11.86 58.2953 11.86C58.5753 11.86 58.8513 11.792 59.1233 11.656C59.3953 11.52 59.6193 11.304 59.7953 11.008C59.9793 10.72 60.0713 10.344 60.0713 9.88V4.48H61.0312V9.88C61.0312 10.512 60.8993 11.04 60.6353 11.464C60.3713 11.896 60.0313 12.22 59.6153 12.436C59.1993 12.652 58.7593 12.76 58.2953 12.76C57.7593 12.76 57.2833 12.66 56.8673 12.46C56.4593 12.26 56.1393 11.976 55.9073 11.608C55.6753 11.248 55.5593 10.832 55.5593 10.36ZM55.4513 7.24C55.4513 6.64 55.5752 6.128 55.8232 5.704C56.0713 5.272 56.4033 4.94 56.8193 4.708C57.2353 4.476 57.6913 4.36 58.1873 4.36C58.6513 4.36 59.0553 4.476 59.3993 4.708C59.7433 4.94 60.0113 5.272 60.2033 5.704C60.4033 6.128 60.5033 6.64 60.5033 7.24C60.5033 7.832 60.4033 8.344 60.2033 8.776C60.0113 9.208 59.7433 9.54 59.3993 9.772C59.0553 10.004 58.6513 10.12 58.1873 10.12C57.6913 10.12 57.2353 10.004 56.8193 9.772C56.4033 9.54 56.0713 9.208 55.8232 8.776C55.5752 8.344 55.4513 7.832 55.4513 7.24ZM56.4233 7.24C56.4233 7.664 56.5073 8.024 56.6753 8.32C56.8513 8.616 57.0833 8.84 57.3713 8.992C57.6593 9.144 57.9713 9.22 58.3073 9.22C58.5873 9.22 58.8633 9.144 59.1353 8.992C59.4073 8.84 59.6313 8.616 59.8073 8.32C59.9833 8.024 60.0713 7.664 60.0713 7.24C60.0713 6.92 60.0193 6.64 59.9153 6.4C59.8113 6.152 59.6713 5.944 59.4953 5.776C59.3273 5.608 59.1393 5.48 58.9313 5.392C58.7233 5.304 58.5153 5.26 58.3073 5.26C57.9713 5.26 57.6593 5.336 57.3713 5.488C57.0833 5.64 56.8513 5.864 56.6753 6.16C56.5073 6.456 56.4233 6.816 56.4233 7.24ZM63.435 5.8C63.435 6.448 63.579 7.02 63.867 7.516C64.163 8.012 64.547 8.4 65.019 8.68C65.491 8.96 66.003 9.1 66.555 9.1C66.955 9.1 67.319 9.048 67.647 8.944C67.983 8.84 68.287 8.696 68.559 8.512C68.831 8.32 69.063 8.1 69.255 7.852V9.196C68.903 9.508 68.519 9.74 68.103 9.892C67.687 10.044 67.171 10.12 66.555 10.12C65.971 10.12 65.423 10.016 64.911 9.808C64.407 9.592 63.963 9.292 63.579 8.908C63.195 8.516 62.895 8.056 62.679 7.528C62.463 7 62.355 6.424 62.355 5.8C62.355 5.176 62.463 4.6 62.679 4.072C62.895 3.544 63.195 3.088 63.579 2.704C63.963 2.312 64.407 2.012 64.911 1.804C65.423 1.588 65.971 1.48 66.555 1.48C67.171 1.48 67.687 1.556 68.103 1.708C68.519 1.86 68.903 2.092 69.255 2.404V3.748C69.063 3.5 68.831 3.284 68.559 3.1C68.287 2.908 67.983 2.76 67.647 2.656C67.319 2.552 66.955 2.5 66.555 2.5C66.003 2.5 65.491 2.64 65.019 2.92C64.547 3.2 64.163 3.588 63.867 4.084C63.579 4.572 63.435 5.144 63.435 5.8ZM70.9898 0.64H71.9498V10H70.9898V0.64ZM74.1875 8.296C74.1875 8.504 74.2355 8.684 74.3315 8.836C74.4355 8.988 74.5755 9.104 74.7515 9.184C74.9355 9.256 75.1435 9.292 75.3755 9.292C75.6715 9.292 75.9355 9.232 76.1675 9.112C76.4075 8.992 76.5955 8.824 76.7315 8.608C76.8755 8.384 76.9475 8.128 76.9475 7.84L77.1395 8.56C77.1395 8.912 77.0315 9.204 76.8155 9.436C76.6075 9.668 76.3475 9.84 76.0355 9.952C75.7315 10.064 75.4275 10.12 75.1235 10.12C74.7875 10.12 74.4715 10.052 74.1755 9.916C73.8875 9.772 73.6555 9.568 73.4795 9.304C73.3035 9.04 73.2155 8.72 73.2155 8.344C73.2155 7.808 73.4035 7.38 73.7795 7.06C74.1635 6.732 74.6955 6.568 75.3755 6.568C75.7755 6.568 76.1075 6.616 76.3715 6.712C76.6435 6.8 76.8595 6.904 77.0195 7.024C77.1795 7.136 77.2875 7.228 77.3435 7.3V7.864C77.0635 7.672 76.7755 7.536 76.4795 7.456C76.1835 7.368 75.8675 7.324 75.5315 7.324C75.2195 7.324 74.9635 7.364 74.7635 7.444C74.5715 7.524 74.4275 7.636 74.3315 7.78C74.2355 7.924 74.1875 8.096 74.1875 8.296ZM74.0435 5.752L73.5755 5.044C73.7835 4.892 74.0675 4.74 74.4275 4.588C74.7955 4.436 75.2355 4.36 75.7475 4.36C76.1795 4.36 76.5555 4.428 76.8755 4.564C77.2035 4.692 77.4555 4.88 77.6315 5.128C77.8155 5.376 77.9075 5.68 77.9075 6.04V10H76.9475V6.172C76.9475 5.98 76.9155 5.824 76.8515 5.704C76.7875 5.576 76.6955 5.476 76.5755 5.404C76.4635 5.332 76.3315 5.28 76.1795 5.248C76.0275 5.216 75.8675 5.2 75.6995 5.2C75.4275 5.2 75.1795 5.232 74.9555 5.296C74.7395 5.36 74.5555 5.436 74.4035 5.524C74.2515 5.612 74.1315 5.688 74.0435 5.752ZM79.7608 8.308C79.8728 8.476 80.0008 8.632 80.1448 8.776C80.2888 8.92 80.4528 9.036 80.6368 9.124C80.8288 9.204 81.0368 9.244 81.2608 9.244C81.5328 9.244 81.7448 9.184 81.8968 9.064C82.0568 8.936 82.1368 8.764 82.1368 8.548C82.1368 8.356 82.0728 8.196 81.9448 8.068C81.8248 7.932 81.6688 7.82 81.4768 7.732C81.2848 7.636 81.0808 7.548 80.8648 7.468C80.6248 7.372 80.3808 7.26 80.1328 7.132C79.8928 6.996 79.6888 6.824 79.5208 6.616C79.3608 6.4 79.2808 6.132 79.2808 5.812C79.2808 5.484 79.3648 5.212 79.5328 4.996C79.7088 4.78 79.9328 4.62 80.2048 4.516C80.4848 4.412 80.7728 4.36 81.0688 4.36C81.3648 4.36 81.6408 4.408 81.8968 4.504C82.1608 4.6 82.3928 4.728 82.5928 4.888C82.7928 5.048 82.9488 5.232 83.0608 5.44L82.2928 5.932C82.1408 5.724 81.9488 5.552 81.7168 5.416C81.4928 5.28 81.2368 5.212 80.9488 5.212C80.7488 5.212 80.5768 5.256 80.4328 5.344C80.2888 5.432 80.2168 5.568 80.2168 5.752C80.2168 5.896 80.2728 6.024 80.3848 6.136C80.4968 6.248 80.6408 6.348 80.8168 6.436C80.9928 6.524 81.1768 6.608 81.3688 6.688C81.6888 6.816 81.9808 6.956 82.2448 7.108C82.5088 7.252 82.7168 7.428 82.8688 7.636C83.0288 7.844 83.1088 8.112 83.1088 8.44C83.1088 8.92 82.9328 9.32 82.5808 9.64C82.2368 9.96 81.7808 10.12 81.2128 10.12C80.8448 10.12 80.5128 10.056 80.2168 9.928C79.9208 9.792 79.6688 9.62 79.4608 9.412C79.2608 9.204 79.1088 8.992 79.0048 8.776L79.7608 8.308ZM84.6007 8.308C84.7127 8.476 84.8407 8.632 84.9847 8.776C85.1287 8.92 85.2927 9.036 85.4767 9.124C85.6687 9.204 85.8767 9.244 86.1007 9.244C86.3727 9.244 86.5847 9.184 86.7367 9.064C86.8967 8.936 86.9767 8.764 86.9767 8.548C86.9767 8.356 86.9127 8.196 86.7847 8.068C86.6647 7.932 86.5087 7.82 86.3167 7.732C86.1247 7.636 85.9207 7.548 85.7047 7.468C85.4647 7.372 85.2207 7.26 84.9727 7.132C84.7327 6.996 84.5287 6.824 84.3607 6.616C84.2007 6.4 84.1207 6.132 84.1207 5.812C84.1207 5.484 84.2047 5.212 84.3727 4.996C84.5487 4.78 84.7727 4.62 85.0447 4.516C85.3247 4.412 85.6127 4.36 85.9087 4.36C86.2047 4.36 86.4807 4.408 86.7367 4.504C87.0007 4.6 87.2327 4.728 87.4327 4.888C87.6327 5.048 87.7887 5.232 87.9007 5.44L87.1327 5.932C86.9807 5.724 86.7887 5.552 86.5567 5.416C86.3327 5.28 86.0767 5.212 85.7887 5.212C85.5887 5.212 85.4167 5.256 85.2727 5.344C85.1287 5.432 85.0567 5.568 85.0567 5.752C85.0567 5.896 85.1127 6.024 85.2247 6.136C85.3367 6.248 85.4807 6.348 85.6567 6.436C85.8327 6.524 86.0167 6.608 86.2087 6.688C86.5287 6.816 86.8207 6.956 87.0847 7.108C87.3487 7.252 87.5567 7.428 87.7087 7.636C87.8687 7.844 87.9487 8.112 87.9487 8.44C87.9487 8.92 87.7727 9.32 87.4207 9.64C87.0767 9.96 86.6207 10.12 86.0527 10.12C85.6847 10.12 85.3527 10.056 85.0567 9.928C84.7607 9.792 84.5087 9.62 84.3007 9.412C84.1007 9.204 83.9487 8.992 83.8447 8.776L84.6007 8.308Z" fill="white"/>
</svg>
